<svg width="15" height="15" viewBox="0 0 15 15" fill="none" xmlns="http://www.w3.org/2000/svg">
<path d="M14.8535 0.5C14.8535 0.223858 14.6297 5.07952e-07 14.3535 -3.04476e-07L9.85352 -7.68092e-07C9.57737 -2.73968e-07 9.35352 0.223857 9.35352 0.5C9.35352 0.776143 9.57737 1 9.85352 1L13.8535 1L13.8535 5C13.8535 5.27614 14.0774 5.5 14.3535 5.5C14.6297 5.5 14.8535 5.27614 14.8535 5L14.8535 0.5ZM0.353516 14.5L0.707069 14.8536L14.7071 0.853553L14.3535 0.5L14 0.146447L-3.77595e-05 14.1464L0.353516 14.5Z" fill="black"/>
</svg>
