<svg width="18" height="18" viewBox="0 0 18 18" fill="none" xmlns="http://www.w3.org/2000/svg">
<path d="M10.0702 15.8247V12.4701C10.0702 11.8625 9.794 11.2879 9.31957 10.9084L8.27193 10.0703M8.27193 10.0703L9.35088 5.39483M8.27193 10.0703L7.19299 9.35097M12.9474 8.63167L11.9955 8.44129C11.4553 8.33326 10.9836 8.00724 10.6917 7.54013L9.35088 5.39483L7.91229 5.03518L6.14067 5.92099C5.4631 6.25978 5.03509 6.9523 5.03509 7.70985V8.63167M7.19299 9.35097L7.91229 5.03518M7.19299 9.35097L6.87379 11.1065C6.66042 12.2801 5.47383 13.0072 4.33136 12.6644L2.8772 12.2282M10.4298 2.51764C10.4298 2.9149 10.1078 3.23694 9.71053 3.23694C9.31327 3.23694 8.99123 2.9149 8.99123 2.51764C8.99123 2.12038 9.31327 1.79834 9.71053 1.79834C10.1078 1.79834 10.4298 2.12038 10.4298 2.51764Z" stroke="black" stroke-width="2" stroke-linecap="round" stroke-linejoin="round"/>
</svg>
