<svg width="154" height="516" viewBox="0 0 154 516" fill="none" xmlns="http://www.w3.org/2000/svg">
<path d="M117.283 514.711L86.8775 476.44L98.3896 456.5L112.212 442.729L151.169 407.56L104.176 353.151C102.921 351.736 99.284 348.463 94.7804 346.691C90.2768 344.92 81.5117 343.749 77.692 343.385L76.1377 342.488L74.2548 340.365L73.8166 338.731L73.7974 334.577L80.3401 296.921L80.54 293.584L80.1817 290.615L79.9138 283.9L80.4526 279.377L81.9181 275.044L83.6826 270.193L86.1946 264.047L87.4706 260.641L88.418 256.009L88.6178 252.671L89.1862 249.892L90.6813 247.303L92.3259 244.454L92.8943 241.675L95.3678 227.22L94.0237 220.575L90.5376 211.656L90.7878 205.241L91.8047 201.685L25.1654 186.689L25.6746 180.423L25.676 171.446L24.1528 163.316L22.0019 154.478L19.2027 149.755L15.3569 146.844L10.8835 143.225L9.00055 141.102L6.60989 136.269L6.33161 131.965L6.61137 127.293L9.32322 117.81L6.62464 106.93L2.16302 91.9238L2.00461 85.6174L4.77715 70.645L7.07009 63.6823L9.28311 58.0545L11.8247 53.6522L12.5027 51.2815L21.4776 8.81531L15.6985 6.8599L12.0719 4.76603L7.65708 1.63061" stroke="url(#paint0_linear_45_966)" stroke-width="4"/>
<defs>
<linearGradient id="paint0_linear_45_966" x1="2.65706" y1="-7.86941" x2="53.6571" y2="249.631" gradientUnits="userSpaceOnUse">
<stop stop-color="#D6EBEB"/>
<stop offset="1" stop-color="#798585" stop-opacity="0"/>
</linearGradient>
</defs>
</svg>
